solid comb gel
facet normal -2.16378476296813e-18 2.74360638911705e-18 -1.0
outer loop
vertex 103.131740360676 91.4809133126591 -3.0
vertex -5.0 77.4809133126591 -3.0
vertex -5.0 91.4809133126591 -3.0
endloop
endfacet
facet normal -2.16378476296813e-18 2.74360638911705e-18 -1.0
outer loop
vertex -5.0 77.4809133126591 -3.0
vertex 103.131740360676 91.4809133126591 -3.0
vertex -0.999999999999996 77.4809133126591 -3.0
endloop
endfacet
facet normal -2.16378476296813e-18 2.74360638911705e-18 -1.0
outer loop
vertex -0.999999999999996 77.4809133126591 -3.0
vertex 103.131740360676 91.4809133126591 -3.0
vertex -0.999999999999995 72.4809133126592 -3.0
endloop
endfacet
facet normal -2.16378476296813e-18 2.74360638911705e-18 -1.0
outer loop
vertex -0.999999999999995 72.4809133126592 -3.0
vertex 103.131740360676 91.4809133126591 -3.0
vertex 3.0 72.4809133126592 -3.0
endloop
endfacet
facet normal -2.16378476296813e-18 2.74360638911705e-18 -1.0
outer loop
vertex 3.0 72.4809133126592 -3.0
vertex 103.131740360676 91.4809133126591 -3.0
vertex 7.00000000000001 72.4809133126591 -3.0
endloop
endfacet
facet normal -2.16378476296813e-18 2.74360638911705e-18 -1.0
outer loop
vertex 3.0 72.4809133126592 -3.0
vertex 7.00000000000001 72.4809133126591 -3.0
vertex 3.00000000000002 62.4809133126591 -3.0
endloop
endfacet
facet normal -2.16378476296813e-18 2.74360638911705e-18 -1.0
outer loop
vertex 7.00000000000001 72.4809133126591 -3.0
vertex 103.131740360676 91.4809133126591 -3.0
vertex 9.00000000000001 72.4809133126591 -3.0
endloop
endfacet
facet normal -2.16378476296813e-18 2.74360638911705e-18 -1.0
outer loop
vertex 9.00000000000001 72.4809133126591 -3.0
vertex 103.131740360676 91.4809133126591 -3.0
vertex 13.0 72.4809133126591 -3.0
endloop
endfacet
facet normal -2.16378476296813e-18 2.74360638911705e-18 -1.0
outer loop
vertex 9.00000000000001 72.4809133126591 -3.0
vertex 13.0 72.4809133126591 -3.0
vertex 9.00000000000001 62.4809133126591 -3.0
endloop
endfacet
facet normal -2.16378476296813e-18 2.74360638911705e-18 -1.0
outer loop
vertex 13.0 72.4809133126591 -3.0
vertex 103.131740360676 91.4809133126591 -3.0
vertex 15.0 72.4809133126591 -3.0
endloop
endfacet
facet normal -2.16378476296813e-18 2.74360638911705e-18 -1.0
outer loop
vertex 15.0 72.4809133126591 -3.0
vertex 103.131740360676 91.4809133126591 -3.0
vertex 19.0 72.4809133126591 -3.0
endloop
endfacet
facet normal -2.16378476296813e-18 2.74360638911705e-18 -1.0
outer loop
vertex 15.0 72.4809133126591 -3.0
vertex 19.0 72.4809133126591 -3.0
vertex 15.0 62.4809133126591 -3.0
endloop
endfacet
facet normal -2.16378476296813e-18 2.74360638911705e-18 -1.0
outer loop
vertex 19.0 72.4809133126591 -3.0
vertex 103.131740360676 91.4809133126591 -3.0
vertex 21.0 72.4809133126591 -3.0
endloop
endfacet
facet normal -2.16378476296813e-18 2.74360638911705e-18 -1.0
outer loop
vertex 21.0 72.4809133126591 -3.0
vertex 103.131740360676 91.4809133126591 -3.0
vertex 25.0 72.4809133126591 -3.0
endloop
endfacet
facet normal -2.16378476296813e-18 2.74360638911705e-18 -1.0
outer loop
vertex 21.0 72.4809133126591 -3.0
vertex 25.0 72.4809133126591 -3.0
vertex 21.0 62.4809133126591 -3.0
endloop
endfacet
facet normal -2.16378476296813e-18 2.74360638911705e-18 -1.0
outer loop
vertex 21.0 62.4809133126591 -3.0
vertex 25.0 72.4809133126591 -3.0
vertex 25.0 62.4809133126591 -3.0
endloop
endfacet
facet normal -2.16378476296813e-18 2.74360638911705e-18 -1.0
outer loop
vertex 25.0 72.4809133126591 -3.0
vertex 103.131740360676 91.4809133126591 -3.0
vertex 27.0 72.4809133126591 -3.0
endloop
endfacet
facet normal -2.16378476296813e-18 2.74360638911705e-18 -1.0
outer loop
vertex 27.0 72.4809133126591 -3.0
vertex 103.131740360676 91.4809133126591 -3.0
vertex 31.0 72.4809133126591 -3.0
endloop
endfacet
facet normal -2.16378476296813e-18 2.74360638911705e-18 -1.0
outer loop
vertex 27.0 72.4809133126591 -3.0
vertex 31.0 72.4809133126591 -3.0
vertex 27.0 62.4809133126591 -3.0
endloop
endfacet
facet normal -2.16378476296813e-18 2.74360638911705e-18 -1.0
outer loop
vertex 31.0 72.4809133126591 -3.0
vertex 103.131740360676 91.4809133126591 -3.0
vertex 33.0 72.4809133126591 -3.0
endloop
endfacet
facet normal -2.16378476296813e-18 2.74360638911705e-18 -1.0
outer loop
vertex 33.0 72.4809133126591 -3.0
vertex 103.131740360676 91.4809133126591 -3.0
vertex 37.0 72.4809133126591 -3.0
endloop
endfacet
facet normal -2.16378476296813e-18 2.74360638911705e-18 -1.0
outer loop
vertex 33.0 72.4809133126591 -3.0
vertex 37.0 72.4809133126591 -3.0
vertex 33.0 62.4809133126591 -3.0
endloop
endfacet
facet normal -2.16378476296813e-18 2.74360638911705e-18 -1.0
outer loop
vertex 33.0 62.4809133126591 -3.0
vertex 37.0 72.4809133126591 -3.0
vertex 37.0 62.4809133126591 -3.0
endloop
endfacet
facet normal -2.16378476296813e-18 2.74360638911705e-18 -1.0
outer loop
vertex 37.0 72.4809133126591 -3.0
vertex 103.131740360676 91.4809133126591 -3.0
vertex 39.0 72.4809133126591 -3.0
endloop
endfacet
facet normal -2.16378476296813e-18 2.74360638911705e-18 -1.0
outer loop
vertex 39.0 72.4809133126591 -3.0
vertex 103.131740360676 91.4809133126591 -3.0
vertex 43.0 72.4809133126591 -3.0
endloop
endfacet
facet normal -2.16378476296813e-18 2.74360638911705e-18 -1.0
outer loop
vertex 39.0 72.4809133126591 -3.0
vertex 43.0 72.4809133126591 -3.0
vertex 39.0 62.4809133126591 -3.0
endloop
endfacet
facet normal -2.16378476296813e-18 2.74360638911705e-18 -1.0
outer loop
vertex 43.0 72.4809133126591 -3.0
vertex 103.131740360676 91.4809133126591 -3.0
vertex 45.0 72.4809133126591 -3.0
endloop
endfacet
facet normal -2.16378476296813e-18 2.74360638911705e-18 -1.0
outer loop
vertex 45.0 72.4809133126591 -3.0
vertex 103.131740360676 91.4809133126591 -3.0
vertex 49.0 72.4809133126591 -3.0
endloop
endfacet
facet normal -2.16378476296813e-18 2.74360638911705e-18 -1.0
outer loop
vertex 45.0 72.4809133126591 -3.0
vertex 49.0 72.4809133126591 -3.0
vertex 45.0 62.4809133126591 -3.0
endloop
endfacet
facet normal -2.16378476296813e-18 2.74360638911705e-18 -1.0
outer loop
vertex 49.0 72.4809133126591 -3.0
vertex 103.131740360676 91.4809133126591 -3.0
vertex 51.0 72.4809133126591 -3.0
endloop
endfacet
facet normal -2.16378476296813e-18 2.74360638911705e-18 -1.0
outer loop
vertex 51.0 72.4809133126591 -3.0
vertex 103.131740360676 91.4809133126591 -3.0
vertex 55.0 72.4809133126591 -3.0
endloop
endfacet
facet normal -2.16378476296813e-18 2.74360638911705e-18 -1.0
outer loop
vertex 51.0 72.4809133126591 -3.0
vertex 55.0 72.4809133126591 -3.0
vertex 51.0 62.4809133126591 -3.0
endloop
endfacet
facet normal -2.16378476296813e-18 2.74360638911705e-18 -1.0
outer loop
vertex 55.0 72.4809133126591 -3.0
vertex 103.131740360676 91.4809133126591 -3.0
vertex 57.0 72.4809133126591 -3.0
endloop
endfacet
facet normal -2.16378476296813e-18 2.74360638911705e-18 -1.0
outer loop
vertex 57.0 72.4809133126591 -3.0
vertex 103.131740360676 91.4809133126591 -3.0
vertex 61.0 72.4809133126591 -3.0
endloop
endfacet
facet normal -2.16378476296813e-18 2.74360638911705e-18 -1.0
outer loop
vertex 57.0 72.4809133126591 -3.0
vertex 61.0 72.4809133126591 -3.0
vertex 57.0 62.4809133126591 -3.0
endloop
endfacet
facet normal -2.16378476296813e-18 2.74360638911705e-18 -1.0
outer loop
vertex 61.0 72.4809133126591 -3.0
vertex 103.131740360676 91.4809133126591 -3.0
vertex 63.0 72.4809133126591 -3.0
endloop
endfacet
facet normal -2.16378476296813e-18 2.74360638911705e-18 -1.0
outer loop
vertex 63.0 72.4809133126591 -3.0
vertex 103.131740360676 91.4809133126591 -3.0
vertex 67.0 72.4809133126591 -3.0
endloop
endfacet
facet normal -2.16378476296813e-18 2.74360638911705e-18 -1.0
outer loop
vertex 63.0 72.4809133126591 -3.0
vertex 67.0 72.4809133126591 -3.0
vertex 63.0 62.4809133126591 -3.0
endloop
endfacet
facet normal -2.16378476296813e-18 2.74360638911705e-18 -1.0
outer loop
vertex 67.0 72.4809133126591 -3.0
vertex 103.131740360676 91.4809133126591 -3.0
vertex 69.0 72.4809133126591 -3.0
endloop
endfacet
facet normal -2.16378476296813e-18 2.74360638911705e-18 -1.0
outer loop
vertex 69.0 72.4809133126591 -3.0
vertex 103.131740360676 91.4809133126591 -3.0
vertex 73.0 72.4809133126591 -3.0
endloop
endfacet
facet normal -2.16378476296813e-18 2.74360638911705e-18 -1.0
outer loop
vertex 69.0 72.4809133126591 -3.0
vertex 73.0 72.4809133126591 -3.0
vertex 69.0 62.4809133126591 -3.0
endloop
endfacet
facet normal -2.16378476296813e-18 2.74360638911705e-18 -1.0
outer loop
vertex 73.0 72.4809133126591 -3.0
vertex 103.131740360676 91.4809133126591 -3.0
vertex 75.0 72.4809133126591 -3.0
endloop
endfacet
facet normal -2.16378476296813e-18 2.74360638911705e-18 -1.0
outer loop
vertex 75.0 72.4809133126591 -3.0
vertex 103.131740360676 91.4809133126591 -3.0
vertex 79.0 72.4809133126591 -3.0
endloop
endfacet
facet normal -2.16378476296813e-18 2.74360638911705e-18 -1.0
outer loop
vertex 75.0 72.4809133126591 -3.0
vertex 79.0 72.4809133126591 -3.0
vertex 75.0 62.4809133126591 -3.0
endloop
endfacet
facet normal -2.16378476296813e-18 2.74360638911705e-18 -1.0
outer loop
vertex 79.0 72.4809133126591 -3.0
vertex 103.131740360676 91.4809133126591 -3.0
vertex 81.0 72.4809133126591 -3.0
endloop
endfacet
facet normal -2.16378476296813e-18 2.74360638911705e-18 -1.0
outer loop
vertex 81.0 72.4809133126591 -3.0
vertex 103.131740360676 91.4809133126591 -3.0
vertex 85.0 72.4809133126591 -3.0
endloop
endfacet
facet normal -2.16378476296813e-18 2.74360638911705e-18 -1.0
outer loop
vertex 81.0 72.4809133126591 -3.0
vertex 85.0 72.4809133126591 -3.0
vertex 81.0 62.4809133126591 -3.0
endloop
endfacet
facet normal -2.16378476296813e-18 2.74360638911705e-18 -1.0
outer loop
vertex 85.0 72.4809133126591 -3.0
vertex 103.131740360676 91.4809133126591 -3.0
vertex 87.0 72.4809133126591 -3.0
endloop
endfacet
facet normal -2.16378476296813e-18 2.74360638911705e-18 -1.0
outer loop
vertex 87.0 72.4809133126591 -3.0
vertex 103.131740360676 91.4809133126591 -3.0
vertex 90.9999999999999 72.4809133126591 -3.0
endloop
endfacet
facet normal -2.16378476296813e-18 2.74360638911705e-18 -1.0
outer loop
vertex 87.0 72.4809133126591 -3.0
vertex 90.9999999999999 72.4809133126591 -3.0
vertex 87.0 62.4809133126591 -3.0
endloop
endfacet
facet normal -2.16378476296813e-18 2.74360638911705e-18 -1.0
outer loop
vertex 90.9999999999999 72.4809133126591 -3.0
vertex 103.131740360676 91.4809133126591 -3.0
vertex 92.9999999999999 72.4809133126591 -3.0
endloop
endfacet
facet normal -2.16378476296813e-18 2.74360638911705e-18 -1.0
outer loop
vertex 92.9999999999999 72.4809133126591 -3.0
vertex 103.131740360676 91.4809133126591 -3.0
vertex 92.9999999999999 62.4809133126591 -3.0
endloop
endfacet
facet normal -2.16378476296813e-18 2.74360638911705e-18 -1.0
outer loop
vertex 92.9999999999999 62.4809133126591 -3.0
vertex 103.131740360676 91.4809133126591 -3.0
vertex 96.9999999999999 72.4804656084562 -3.0
endloop
endfacet
facet normal -2.16378476296813e-18 2.74360638911705e-18 -1.0
outer loop
vertex 96.9999999999999 72.4804656084562 -3.0
vertex 103.131740360676 91.4809133126591 -3.0
vertex 99.0998734217343 77.4809133126591 -3.0
endloop
endfacet
facet normal -2.16378476296813e-18 2.74360638911705e-18 -1.0
outer loop
vertex 96.9999999999999 72.4804656084562 -3.0
vertex 99.0998734217343 77.4809133126591 -3.0
vertex 99.0929478688276 72.4795285868988 -3.0
endloop
endfacet
facet normal -2.16378476296813e-18 2.74360638911705e-18 -1.0
outer loop
vertex 99.0998734217343 77.4809133126591 -3.0
vertex 103.131740360676 91.4809133126591 -3.0
vertex 103.106815273094 77.4809133126591 -3.0
endloop
endfacet
facet normal -2.16378476296813e-18 2.74360638911705e-18 -1.0
outer loop
vertex 96.9999999999999 62.4809133126591 -3.0
vertex 92.9999999999999 62.4809133126591 -3.0
vertex 96.9999999999999 72.4804656084562 -3.0
endloop
endfacet
facet normal -2.16378476296813e-18 2.74360638911705e-18 -1.0
outer loop
vertex 90.9999999999999 62.4809133126591 -3.0
vertex 87.0 62.4809133126591 -3.0
vertex 90.9999999999999 72.4809133126591 -3.0
endloop
endfacet
facet normal -2.16378476296813e-18 2.74360638911705e-18 -1.0
outer loop
vertex 85.0 62.4809133126591 -3.0
vertex 81.0 62.4809133126591 -3.0
vertex 85.0 72.4809133126591 -3.0
endloop
endfacet
facet normal -2.16378476296813e-18 2.74360638911705e-18 -1.0
outer loop
vertex 79.0 62.4809133126591 -3.0
vertex 75.0 62.4809133126591 -3.0
vertex 79.0 72.4809133126591 -3.0
endloop
endfacet
facet normal -2.16378476296813e-18 2.74360638911705e-18 -1.0
outer loop
vertex 73.0 62.4809133126591 -3.0
vertex 69.0 62.4809133126591 -3.0
vertex 73.0 72.4809133126591 -3.0
endloop
endfacet
facet normal -2.16378476296813e-18 2.74360638911705e-18 -1.0
outer loop
vertex 67.0 62.4809133126591 -3.0
vertex 63.0 62.4809133126591 -3.0
vertex 67.0 72.4809133126591 -3.0
endloop
endfacet
facet normal -2.16378476296813e-18 2.74360638911705e-18 -1.0
outer loop
vertex 61.0 62.4809133126591 -3.0
vertex 57.0 62.4809133126591 -3.0
vertex 61.0 72.4809133126591 -3.0
endloop
endfacet
facet normal -2.16378476296813e-18 2.74360638911705e-18 -1.0
outer loop
vertex 55.0 62.4809133126591 -3.0
vertex 51.0 62.4809133126591 -3.0
vertex 55.0 72.4809133126591 -3.0
endloop
endfacet
facet normal -2.16378476296813e-18 2.74360638911705e-18 -1.0
outer loop
vertex 49.0 62.4809133126591 -3.0
vertex 45.0 62.4809133126591 -3.0
vertex 49.0 72.4809133126591 -3.0
endloop
endfacet
facet normal -2.16378476296813e-18 2.74360638911705e-18 -1.0
outer loop
vertex 43.0 62.4809133126591 -3.0
vertex 39.0 62.4809133126591 -3.0
vertex 43.0 72.4809133126591 -3.0
endloop
endfacet
facet normal -2.16378476296813e-18 2.74360638911705e-18 -1.0
outer loop
vertex 31.0 62.4809133126591 -3.0
vertex 27.0 62.4809133126591 -3.0
vertex 31.0 72.4809133126591 -3.0
endloop
endfacet
facet normal -2.16378476296813e-18 2.74360638911705e-18 -1.0
outer loop
vertex 19.0 62.4809133126591 -3.0
vertex 15.0 62.4809133126591 -3.0
vertex 19.0 72.4809133126591 -3.0
endloop
endfacet
facet normal -2.16378476296813e-18 2.74360638911705e-18 -1.0
outer loop
vertex 13.0 62.4809133126591 -3.0
vertex 9.00000000000001 62.4809133126591 -3.0
vertex 13.0 72.4809133126591 -3.0
endloop
endfacet
facet normal -2.16378476296813e-18 2.74360638911705e-18 -1.0
outer loop
vertex 7.00000000000001 62.4809133126591 -3.0
vertex 3.00000000000002 62.4809133126591 -3.0
vertex 7.00000000000001 72.4809133126591 -3.0
endloop
endfacet
facet normal 2.16378476296813e-18 -2.74360638911705e-18 1.0
outer loop
vertex 19.0 62.4809133126591 -1.5
vertex 15.0 72.4809133126591 -1.5
vertex 15.0 62.4809133126591 -1.5
endloop
endfacet
facet normal 2.16378476296813e-18 -2.74360638911705e-18 1.0
outer loop
vertex 25.0 62.4809133126591 -1.5
vertex 21.0 72.4809133126591 -1.5
vertex 21.0 62.4809133126591 -1.5
endloop
endfacet
facet normal 2.16378476296813e-18 -2.74360638911705e-18 1.0
outer loop
vertex 31.0 62.4809133126591 -1.5
vertex 27.0 72.4809133126591 -1.5
vertex 27.0 62.4809133126591 -1.5
endloop
endfacet
facet normal 2.16378476296813e-18 -2.74360638911705e-18 1.0
outer loop
vertex 27.0 72.4809133126591 -1.5
vertex 31.0 62.4809133126591 -1.5
vertex 31.0 72.4809133126591 -1.5
endloop
endfacet
facet normal 2.16378476296813e-18 -2.74360638911705e-18 1.0
outer loop
vertex 37.0 62.4809133126591 -1.5
vertex 33.0 72.4809133126591 -1.5
vertex 33.0 62.4809133126591 -1.5
endloop
endfacet
facet normal 2.16378476296813e-18 -2.74360638911705e-18 1.0
outer loop
vertex 43.0 62.4809133126591 -1.5
vertex 39.0 72.4809133126591 -1.5
vertex 39.0 62.4809133126591 -1.5
endloop
endfacet
facet normal 2.16378476296813e-18 -2.74360638911705e-18 1.0
outer loop
vertex 39.0 72.4809133126591 -1.5
vertex 43.0 62.4809133126591 -1.5
vertex 43.0 72.4809133126591 -1.5
endloop
endfacet
facet normal 2.16378476296813e-18 -2.74360638911705e-18 1.0
outer loop
vertex 49.0 62.4809133126591 -1.5
vertex 45.0 72.4809133126591 -1.5
vertex 45.0 62.4809133126591 -1.5
endloop
endfacet
facet normal 2.16378476296813e-18 -2.74360638911705e-18 1.0
outer loop
vertex 55.0 62.4809133126591 -1.5
vertex 51.0 72.4809133126591 -1.5
vertex 51.0 62.4809133126591 -1.5
endloop
endfacet
facet normal 2.16378476296813e-18 -2.74360638911705e-18 1.0
outer loop
vertex 61.0 62.4809133126591 -1.5
vertex 57.0 72.4809133126591 -1.5
vertex 57.0 62.4809133126591 -1.5
endloop
endfacet
facet normal 2.16378476296813e-18 -2.74360638911705e-18 1.0
outer loop
vertex 67.0 62.4809133126591 -1.5
vertex 63.0 72.4809133126591 -1.5
vertex 63.0 62.4809133126591 -1.5
endloop
endfacet
facet normal 2.16378476296813e-18 -2.74360638911705e-18 1.0
outer loop
vertex 73.0 62.4809133126591 -1.5
vertex 69.0 72.4809133126591 -1.5
vertex 69.0 62.4809133126591 -1.5
endloop
endfacet
facet normal 2.16378476296813e-18 -2.74360638911705e-18 1.0
outer loop
vertex 79.0 62.4809133126591 -1.5
vertex 75.0 72.4809133126591 -1.5
vertex 75.0 62.4809133126591 -1.5
endloop
endfacet
facet normal 2.16378476296813e-18 -2.74360638911705e-18 1.0
outer loop
vertex 85.0 62.4809133126591 -1.5
vertex 81.0 72.4809133126591 -1.5
vertex 81.0 62.4809133126591 -1.5
endloop
endfacet
facet normal 2.16378476296813e-18 -2.74360638911705e-18 1.0
outer loop
vertex 90.9999999999999 62.4809133126591 -1.5
vertex 87.0 72.4809133126591 -1.5
vertex 87.0 62.4809133126591 -1.5
endloop
endfacet
facet normal 2.16378476296813e-18 -2.74360638911705e-18 1.0
outer loop
vertex 96.9999999999999 62.4809133126591 -1.5
vertex 92.9999999999999 72.4809133126591 -1.5
vertex 92.9999999999999 62.4809133126591 -1.5
endloop
endfacet
facet normal 2.16378476296813e-18 -2.74360638911705e-18 1.0
outer loop
vertex -5.0 77.4809133126591 -1.5
vertex 103.131740360676 91.4809133126591 -1.5
vertex -5.0 91.4809133126591 -1.5
endloop
endfacet
facet normal 2.16378476296813e-18 -2.74360638911705e-18 1.0
outer loop
vertex 103.131740360676 91.4809133126591 -1.5
vertex -5.0 77.4809133126591 -1.5
vertex -0.999999999999996 77.4809133126591 -1.5
endloop
endfacet
facet normal 2.16378476296813e-18 -2.74360638911705e-18 1.0
outer loop
vertex 103.131740360676 91.4809133126591 -1.5
vertex -0.999999999999996 77.4809133126591 -1.5
vertex -0.999999999999995 72.4809133126592 -1.5
endloop
endfacet
facet normal 2.16378476296813e-18 -2.74360638911705e-18 1.0
outer loop
vertex 103.131740360676 91.4809133126591 -1.5
vertex -0.999999999999995 72.4809133126592 -1.5
vertex 3.0 72.4809133126592 -1.5
endloop
endfacet
facet normal 2.16378476296813e-18 -2.74360638911705e-18 1.0
outer loop
vertex 103.131740360676 91.4809133126591 -1.5
vertex 3.0 72.4809133126592 -1.5
vertex 7.00000000000001 72.4809133126591 -1.5
endloop
endfacet
facet normal 2.16378476296813e-18 -2.74360638911705e-18 1.0
outer loop
vertex 7.00000000000001 72.4809133126591 -1.5
vertex 3.0 72.4809133126592 -1.5
vertex 3.00000000000002 62.4809133126591 -1.5
endloop
endfacet
facet normal 2.16378476296813e-18 -2.74360638911705e-18 1.0
outer loop
vertex 7.00000000000001 72.4809133126591 -1.5
vertex 3.00000000000002 62.4809133126591 -1.5
vertex 7.00000000000001 62.4809133126591 -1.5
endloop
endfacet
facet normal 2.16378476296813e-18 -2.74360638911705e-18 1.0
outer loop
vertex 103.131740360676 91.4809133126591 -1.5
vertex 7.00000000000001 72.4809133126591 -1.5
vertex 9.00000000000001 72.4809133126591 -1.5
endloop
endfacet
facet normal 2.16378476296813e-18 -2.74360638911705e-18 1.0
outer loop
vertex 103.131740360676 91.4809133126591 -1.5
vertex 9.00000000000001 72.4809133126591 -1.5
vertex 13.0 72.4809133126591 -1.5
endloop
endfacet
facet normal 2.16378476296813e-18 -2.74360638911705e-18 1.0
outer loop
vertex 13.0 72.4809133126591 -1.5
vertex 9.00000000000001 72.4809133126591 -1.5
vertex 9.00000000000001 62.4809133126591 -1.5
endloop
endfacet
facet normal 2.16378476296813e-18 -2.74360638911705e-18 1.0
outer loop
vertex 13.0 72.4809133126591 -1.5
vertex 9.00000000000001 62.4809133126591 -1.5
vertex 13.0 62.4809133126591 -1.5
endloop
endfacet
facet normal 2.16378476296813e-18 -2.74360638911705e-18 1.0
outer loop
vertex 103.131740360676 91.4809133126591 -1.5
vertex 13.0 72.4809133126591 -1.5
vertex 15.0 72.4809133126591 -1.5
endloop
endfacet
facet normal 2.16378476296813e-18 -2.74360638911705e-18 1.0
outer loop
vertex 103.131740360676 91.4809133126591 -1.5
vertex 15.0 72.4809133126591 -1.5
vertex 19.0 72.4809133126591 -1.5
endloop
endfacet
facet normal 2.16378476296813e-18 -2.74360638911705e-18 1.0
outer loop
vertex 19.0 72.4809133126591 -1.5
vertex 15.0 72.4809133126591 -1.5
vertex 19.0 62.4809133126591 -1.5
endloop
endfacet
facet normal 2.16378476296813e-18 -2.74360638911705e-18 1.0
outer loop
vertex 103.131740360676 91.4809133126591 -1.5
vertex 19.0 72.4809133126591 -1.5
vertex 21.0 72.4809133126591 -1.5
endloop
endfacet
facet normal 2.16378476296813e-18 -2.74360638911705e-18 1.0
outer loop
vertex 103.131740360676 91.4809133126591 -1.5
vertex 21.0 72.4809133126591 -1.5
vertex 25.0 72.4809133126591 -1.5
endloop
endfacet
facet normal 2.16378476296813e-18 -2.74360638911705e-18 1.0
outer loop
vertex 25.0 72.4809133126591 -1.5
vertex 21.0 72.4809133126591 -1.5
vertex 25.0 62.4809133126591 -1.5
endloop
endfacet
facet normal 2.16378476296813e-18 -2.74360638911705e-18 1.0
outer loop
vertex 103.131740360676 91.4809133126591 -1.5
vertex 25.0 72.4809133126591 -1.5
vertex 27.0 72.4809133126591 -1.5
endloop
endfacet
facet normal 2.16378476296813e-18 -2.74360638911705e-18 1.0
outer loop
vertex 103.131740360676 91.4809133126591 -1.5
vertex 27.0 72.4809133126591 -1.5
vertex 31.0 72.4809133126591 -1.5
endloop
endfacet
facet normal 2.16378476296813e-18 -2.74360638911705e-18 1.0
outer loop
vertex 103.131740360676 91.4809133126591 -1.5
vertex 31.0 72.4809133126591 -1.5
vertex 33.0 72.4809133126591 -1.5
endloop
endfacet
facet normal 2.16378476296813e-18 -2.74360638911705e-18 1.0
outer loop
vertex 103.131740360676 91.4809133126591 -1.5
vertex 33.0 72.4809133126591 -1.5
vertex 37.0 72.4809133126591 -1.5
endloop
endfacet
facet normal 2.16378476296813e-18 -2.74360638911705e-18 1.0
outer loop
vertex 37.0 72.4809133126591 -1.5
vertex 33.0 72.4809133126591 -1.5
vertex 37.0 62.4809133126591 -1.5
endloop
endfacet
facet normal 2.16378476296813e-18 -2.74360638911705e-18 1.0
outer loop
vertex 103.131740360676 91.4809133126591 -1.5
vertex 37.0 72.4809133126591 -1.5
vertex 39.0 72.4809133126591 -1.5
endloop
endfacet
facet normal 2.16378476296813e-18 -2.74360638911705e-18 1.0
outer loop
vertex 103.131740360676 91.4809133126591 -1.5
vertex 39.0 72.4809133126591 -1.5
vertex 43.0 72.4809133126591 -1.5
endloop
endfacet
facet normal 2.16378476296813e-18 -2.74360638911705e-18 1.0
outer loop
vertex 103.131740360676 91.4809133126591 -1.5
vertex 43.0 72.4809133126591 -1.5
vertex 45.0 72.4809133126591 -1.5
endloop
endfacet
facet normal 2.16378476296813e-18 -2.74360638911705e-18 1.0
outer loop
vertex 103.131740360676 91.4809133126591 -1.5
vertex 45.0 72.4809133126591 -1.5
vertex 49.0 72.4809133126591 -1.5
endloop
endfacet
facet normal 2.16378476296813e-18 -2.74360638911705e-18 1.0
outer loop
vertex 49.0 72.4809133126591 -1.5
vertex 45.0 72.4809133126591 -1.5
vertex 49.0 62.4809133126591 -1.5
endloop
endfacet
facet normal 2.16378476296813e-18 -2.74360638911705e-18 1.0
outer loop
vertex 103.131740360676 91.4809133126591 -1.5
vertex 49.0 72.4809133126591 -1.5
vertex 51.0 72.4809133126591 -1.5
endloop
endfacet
facet normal 2.16378476296813e-18 -2.74360638911705e-18 1.0
outer loop
vertex 103.131740360676 91.4809133126591 -1.5
vertex 51.0 72.4809133126591 -1.5
vertex 55.0 72.4809133126591 -1.5
endloop
endfacet
facet normal 2.16378476296813e-18 -2.74360638911705e-18 1.0
outer loop
vertex 55.0 72.4809133126591 -1.5
vertex 51.0 72.4809133126591 -1.5
vertex 55.0 62.4809133126591 -1.5
endloop
endfacet
facet normal 2.16378476296813e-18 -2.74360638911705e-18 1.0
outer loop
vertex 103.131740360676 91.4809133126591 -1.5
vertex 55.0 72.4809133126591 -1.5
vertex 57.0 72.4809133126591 -1.5
endloop
endfacet
facet normal 2.16378476296813e-18 -2.74360638911705e-18 1.0
outer loop
vertex 103.131740360676 91.4809133126591 -1.5
vertex 57.0 72.4809133126591 -1.5
vertex 61.0 72.4809133126591 -1.5
endloop
endfacet
facet normal 2.16378476296813e-18 -2.74360638911705e-18 1.0
outer loop
vertex 61.0 72.4809133126591 -1.5
vertex 57.0 72.4809133126591 -1.5
vertex 61.0 62.4809133126591 -1.5
endloop
endfacet
facet normal 2.16378476296813e-18 -2.74360638911705e-18 1.0
outer loop
vertex 103.131740360676 91.4809133126591 -1.5
vertex 61.0 72.4809133126591 -1.5
vertex 63.0 72.4809133126591 -1.5
endloop
endfacet
facet normal 2.16378476296813e-18 -2.74360638911705e-18 1.0
outer loop
vertex 103.131740360676 91.4809133126591 -1.5
vertex 63.0 72.4809133126591 -1.5
vertex 67.0 72.4809133126591 -1.5
endloop
endfacet
facet normal 2.16378476296813e-18 -2.74360638911705e-18 1.0
outer loop
vertex 67.0 72.4809133126591 -1.5
vertex 63.0 72.4809133126591 -1.5
vertex 67.0 62.4809133126591 -1.5
endloop
endfacet
facet normal 2.16378476296813e-18 -2.74360638911705e-18 1.0
outer loop
vertex 103.131740360676 91.4809133126591 -1.5
vertex 67.0 72.4809133126591 -1.5
vertex 69.0 72.4809133126591 -1.5
endloop
endfacet
facet normal 2.16378476296813e-18 -2.74360638911705e-18 1.0
outer loop
vertex 103.131740360676 91.4809133126591 -1.5
vertex 69.0 72.4809133126591 -1.5
vertex 73.0 72.4809133126591 -1.5
endloop
endfacet
facet normal 2.16378476296813e-18 -2.74360638911705e-18 1.0
outer loop
vertex 73.0 72.4809133126591 -1.5
vertex 69.0 72.4809133126591 -1.5
vertex 73.0 62.4809133126591 -1.5
endloop
endfacet
facet normal 2.16378476296813e-18 -2.74360638911705e-18 1.0
outer loop
vertex 103.131740360676 91.4809133126591 -1.5
vertex 73.0 72.4809133126591 -1.5
vertex 75.0 72.4809133126591 -1.5
endloop
endfacet
facet normal 2.16378476296813e-18 -2.74360638911705e-18 1.0
outer loop
vertex 103.131740360676 91.4809133126591 -1.5
vertex 75.0 72.4809133126591 -1.5
vertex 79.0 72.4809133126591 -1.5
endloop
endfacet
facet normal 2.16378476296813e-18 -2.74360638911705e-18 1.0
outer loop
vertex 79.0 72.4809133126591 -1.5
vertex 75.0 72.4809133126591 -1.5
vertex 79.0 62.4809133126591 -1.5
endloop
endfacet
facet normal 2.16378476296813e-18 -2.74360638911705e-18 1.0
outer loop
vertex 103.131740360676 91.4809133126591 -1.5
vertex 79.0 72.4809133126591 -1.5
vertex 81.0 72.4809133126591 -1.5
endloop
endfacet
facet normal 2.16378476296813e-18 -2.74360638911705e-18 1.0
outer loop
vertex 103.131740360676 91.4809133126591 -1.5
vertex 81.0 72.4809133126591 -1.5
vertex 85.0 72.4809133126591 -1.5
endloop
endfacet
facet normal 2.16378476296813e-18 -2.74360638911705e-18 1.0
outer loop
vertex 85.0 72.4809133126591 -1.5
vertex 81.0 72.4809133126591 -1.5
vertex 85.0 62.4809133126591 -1.5
endloop
endfacet
facet normal 2.16378476296813e-18 -2.74360638911705e-18 1.0
outer loop
vertex 103.131740360676 91.4809133126591 -1.5
vertex 85.0 72.4809133126591 -1.5
vertex 87.0 72.4809133126591 -1.5
endloop
endfacet
facet normal 2.16378476296813e-18 -2.74360638911705e-18 1.0
outer loop
vertex 103.131740360676 91.4809133126591 -1.5
vertex 87.0 72.4809133126591 -1.5
vertex 90.9999999999999 72.4809133126591 -1.5
endloop
endfacet
facet normal 2.16378476296813e-18 -2.74360638911705e-18 1.0
outer loop
vertex 90.9999999999999 72.4809133126591 -1.5
vertex 87.0 72.4809133126591 -1.5
vertex 90.9999999999999 62.4809133126591 -1.5
endloop
endfacet
facet normal 2.16378476296813e-18 -2.74360638911705e-18 1.0
outer loop
vertex 103.131740360676 91.4809133126591 -1.5
vertex 90.9999999999999 72.4809133126591 -1.5
vertex 92.9999999999999 72.4809133126591 -1.5
endloop
endfacet
facet normal 2.16378476296813e-18 -2.74360638911705e-18 1.0
outer loop
vertex 103.131740360676 91.4809133126591 -1.5
vertex 92.9999999999999 72.4809133126591 -1.5
vertex 96.9999999999999 72.4804656084562 -1.5
endloop
endfacet
facet normal 2.16378476296813e-18 -2.74360638911705e-18 1.0
outer loop
vertex 96.9999999999999 72.4804656084562 -1.5
vertex 92.9999999999999 72.4809133126591 -1.5
vertex 96.9999999999999 62.4809133126591 -1.5
endloop
endfacet
facet normal 2.16378476296813e-18 -2.74360638911705e-18 1.0
outer loop
vertex 103.131740360676 91.4809133126591 -1.5
vertex 96.9999999999999 72.4804656084562 -1.5
vertex 99.0998734217343 77.4809133126591 -1.5
endloop
endfacet
facet normal 2.16378476296813e-18 -2.74360638911705e-18 1.0
outer loop
vertex 99.0998734217343 77.4809133126591 -1.5
vertex 96.9999999999999 72.4804656084562 -1.5
vertex 99.0929478688276 72.4795285868988 -1.5
endloop
endfacet
facet normal 2.16378476296813e-18 -2.74360638911705e-18 1.0
outer loop
vertex 103.131740360676 91.4809133126591 -1.5
vertex 99.0998734217343 77.4809133126591 -1.5
vertex 103.106815273094 77.4809133126591 -1.5
endloop
endfacet
facet normal 0.0 -1.0 -2.74360638911705e-18
outer loop
vertex 13.0 62.4809133126591 -1.5
vertex 9.00000000000001 62.4809133126591 -3.0
vertex 13.0 62.4809133126591 -3.0
endloop
endfacet
facet normal 0.0 -1.0 -2.74360638911705e-18
outer loop
vertex 9.00000000000001 62.4809133126591 -3.0
vertex 13.0 62.4809133126591 -1.5
vertex 9.00000000000001 62.4809133126591 -1.5
endloop
endfacet
facet normal 1.0 0.0 -2.16378476296813e-18
outer loop
vertex 13.0 72.4809133126591 -3.0
vertex 13.0 62.4809133126591 -1.5
vertex 13.0 62.4809133126591 -3.0
endloop
endfacet
facet normal 1.0 0.0 -2.16378476296813e-18
outer loop
vertex 13.0 62.4809133126591 -1.5
vertex 13.0 72.4809133126591 -3.0
vertex 13.0 72.4809133126591 -1.5
endloop
endfacet
facet normal 0.0 -1.0 -2.74360638911705e-18
outer loop
vertex 15.0 72.4809133126591 -1.5
vertex 13.0 72.4809133126591 -3.0
vertex 15.0 72.4809133126591 -3.0
endloop
endfacet
facet normal 0.0 -1.0 -2.74360638911705e-18
outer loop
vertex 13.0 72.4809133126591 -3.0
vertex 15.0 72.4809133126591 -1.5
vertex 13.0 72.4809133126591 -1.5
endloop
endfacet
facet normal -1.0 0.0 2.16378476296813e-18
outer loop
vertex 15.0 72.4809133126591 -1.5
vertex 15.0 62.4809133126591 -3.0
vertex 15.0 62.4809133126591 -1.5
endloop
endfacet
facet normal -1.0 0.0 2.16378476296813e-18
outer loop
vertex 15.0 62.4809133126591 -3.0
vertex 15.0 72.4809133126591 -1.5
vertex 15.0 72.4809133126591 -3.0
endloop
endfacet
facet normal 0.0 -1.0 -2.74360638911705e-18
outer loop
vertex 19.0 62.4809133126591 -1.5
vertex 15.0 62.4809133126591 -3.0
vertex 19.0 62.4809133126591 -3.0
endloop
endfacet
facet normal 0.0 -1.0 -2.74360638911705e-18
outer loop
vertex 15.0 62.4809133126591 -3.0
vertex 19.0 62.4809133126591 -1.5
vertex 15.0 62.4809133126591 -1.5
endloop
endfacet
facet normal 1.0 0.0 -2.16378476296813e-18
outer loop
vertex 19.0 72.4809133126591 -3.0
vertex 19.0 62.4809133126591 -1.5
vertex 19.0 62.4809133126591 -3.0
endloop
endfacet
facet normal 1.0 0.0 -2.16378476296813e-18
outer loop
vertex 19.0 62.4809133126591 -1.5
vertex 19.0 72.4809133126591 -3.0
vertex 19.0 72.4809133126591 -1.5
endloop
endfacet
facet normal 0.0 -1.0 -2.74360638911705e-18
outer loop
vertex 21.0 72.4809133126591 -1.5
vertex 19.0 72.4809133126591 -3.0
vertex 21.0 72.4809133126591 -3.0
endloop
endfacet
facet normal 0.0 -1.0 -2.74360638911705e-18
outer loop
vertex 19.0 72.4809133126591 -3.0
vertex 21.0 72.4809133126591 -1.5
vertex 19.0 72.4809133126591 -1.5
endloop
endfacet
facet normal -1.0 0.0 2.16378476296813e-18
outer loop
vertex 21.0 72.4809133126591 -1.5
vertex 21.0 62.4809133126591 -3.0
vertex 21.0 62.4809133126591 -1.5
endloop
endfacet
facet normal -1.0 0.0 2.16378476296813e-18
outer loop
vertex 21.0 62.4809133126591 -3.0
vertex 21.0 72.4809133126591 -1.5
vertex 21.0 72.4809133126591 -3.0
endloop
endfacet
facet normal 0.0 -1.0 -2.74360638911705e-18
outer loop
vertex 25.0 62.4809133126591 -1.5
vertex 21.0 62.4809133126591 -3.0
vertex 25.0 62.4809133126591 -3.0
endloop
endfacet
facet normal 0.0 -1.0 -2.74360638911705e-18
outer loop
vertex 21.0 62.4809133126591 -3.0
vertex 25.0 62.4809133126591 -1.5
vertex 21.0 62.4809133126591 -1.5
endloop
endfacet
facet normal 1.0 -2.8199664825479e-16 -2.16378476296813e-18
outer loop
vertex 25.0 72.4809133126591 -3.0
vertex 25.0 62.4809133126591 -1.5
vertex 25.0 62.4809133126591 -3.0
endloop
endfacet
facet normal 1.0 -2.8199664825479e-16 -2.16378476296813e-18
outer loop
vertex 25.0 62.4809133126591 -1.5
vertex 25.0 72.4809133126591 -3.0
vertex 25.0 72.4809133126591 -1.5
endloop
endfacet
facet normal 0.0 -1.0 -2.74360638911705e-18
outer loop
vertex 27.0 72.4809133126591 -1.5
vertex 25.0 72.4809133126591 -3.0
vertex 27.0 72.4809133126591 -3.0
endloop
endfacet
facet normal 0.0 -1.0 -2.74360638911705e-18
outer loop
vertex 25.0 72.4809133126591 -3.0
vertex 27.0 72.4809133126591 -1.5
vertex 25.0 72.4809133126591 -1.5
endloop
endfacet
facet normal -1.0 0.0 2.16378476296813e-18
outer loop
vertex 27.0 72.4809133126591 -1.5
vertex 27.0 62.4809133126591 -3.0
vertex 27.0 62.4809133126591 -1.5
endloop
endfacet
facet normal -1.0 0.0 2.16378476296813e-18
outer loop
vertex 27.0 62.4809133126591 -3.0
vertex 27.0 72.4809133126591 -1.5
vertex 27.0 72.4809133126591 -3.0
endloop
endfacet
facet normal 0.0 -1.0 -2.74360638911705e-18
outer loop
vertex 31.0 62.4809133126591 -1.5
vertex 27.0 62.4809133126591 -3.0
vertex 31.0 62.4809133126591 -3.0
endloop
endfacet
facet normal 0.0 -1.0 -2.74360638911705e-18
outer loop
vertex 27.0 62.4809133126591 -3.0
vertex 31.0 62.4809133126591 -1.5
vertex 27.0 62.4809133126591 -1.5
endloop
endfacet
facet normal 1.0 5.6399329650958e-16 -2.16378476296813e-18
outer loop
vertex 31.0 72.4809133126591 -3.0
vertex 31.0 62.4809133126591 -1.5
vertex 31.0 62.4809133126591 -3.0
endloop
endfacet
facet normal 1.0 5.6399329650958e-16 -2.16378476296813e-18
outer loop
vertex 31.0 62.4809133126591 -1.5
vertex 31.0 72.4809133126591 -3.0
vertex 31.0 72.4809133126591 -1.5
endloop
endfacet
facet normal 0.0 -1.0 -2.74360638911705e-18
outer loop
vertex 33.0 72.4809133126591 -1.5
vertex 31.0 72.4809133126591 -3.0
vertex 33.0 72.4809133126591 -3.0
endloop
endfacet
facet normal 0.0 -1.0 -2.74360638911705e-18
outer loop
vertex 31.0 72.4809133126591 -3.0
vertex 33.0 72.4809133126591 -1.5
vertex 31.0 72.4809133126591 -1.5
endloop
endfacet
facet normal -1.0 0.0 2.16378476296813e-18
outer loop
vertex 33.0 72.4809133126591 -1.5
vertex 33.0 62.4809133126591 -3.0
vertex 33.0 62.4809133126591 -1.5
endloop
endfacet
facet normal -1.0 0.0 2.16378476296813e-18
outer loop
vertex 33.0 62.4809133126591 -3.0
vertex 33.0 72.4809133126591 -1.5
vertex 33.0 72.4809133126591 -3.0
endloop
endfacet
facet normal 0.0 -1.0 -2.74360638911705e-18
outer loop
vertex 37.0 62.4809133126591 -1.5
vertex 33.0 62.4809133126591 -3.0
vertex 37.0 62.4809133126591 -3.0
endloop
endfacet
facet normal 0.0 -1.0 -2.74360638911705e-18
outer loop
vertex 33.0 62.4809133126591 -3.0
vertex 37.0 62.4809133126591 -1.5
vertex 33.0 62.4809133126591 -1.5
endloop
endfacet
facet normal 1.0 -5.6399329650958e-16 -2.16378476296813e-18
outer loop
vertex 37.0 72.4809133126591 -3.0
vertex 37.0 62.4809133126591 -1.5
vertex 37.0 62.4809133126591 -3.0
endloop
endfacet
facet normal 1.0 -5.6399329650958e-16 -2.16378476296813e-18
outer loop
vertex 37.0 62.4809133126591 -1.5
vertex 37.0 72.4809133126591 -3.0
vertex 37.0 72.4809133126591 -1.5
endloop
endfacet
facet normal 0.0 -1.0 -2.74360638911705e-18
outer loop
vertex 39.0 72.4809133126591 -1.5
vertex 37.0 72.4809133126591 -3.0
vertex 39.0 72.4809133126591 -3.0
endloop
endfacet
facet normal 0.0 -1.0 -2.74360638911705e-18
outer loop
vertex 37.0 72.4809133126591 -3.0
vertex 39.0 72.4809133126591 -1.5
vertex 37.0 72.4809133126591 -1.5
endloop
endfacet
facet normal -1.0 0.0 2.16378476296813e-18
outer loop
vertex 39.0 72.4809133126591 -1.5
vertex 39.0 62.4809133126591 -3.0
vertex 39.0 62.4809133126591 -1.5
endloop
endfacet
facet normal -1.0 0.0 2.16378476296813e-18
outer loop
vertex 39.0 62.4809133126591 -3.0
vertex 39.0 72.4809133126591 -1.5
vertex 39.0 72.4809133126591 -3.0
endloop
endfacet
facet normal 0.0 -1.0 -2.74360638911705e-18
outer loop
vertex 43.0 62.4809133126591 -1.5
vertex 39.0 62.4809133126591 -3.0
vertex 43.0 62.4809133126591 -3.0
endloop
endfacet
facet normal 0.0 -1.0 -2.74360638911705e-18
outer loop
vertex 39.0 62.4809133126591 -3.0
vertex 43.0 62.4809133126591 -1.5
vertex 39.0 62.4809133126591 -1.5
endloop
endfacet
facet normal 1.0 5.6399329650958e-16 -2.16378476296813e-18
outer loop
vertex 43.0 72.4809133126591 -3.0
vertex 43.0 62.4809133126591 -1.5
vertex 43.0 62.4809133126591 -3.0
endloop
endfacet
facet normal 1.0 5.6399329650958e-16 -2.16378476296813e-18
outer loop
vertex 43.0 62.4809133126591 -1.5
vertex 43.0 72.4809133126591 -3.0
vertex 43.0 72.4809133126591 -1.5
endloop
endfacet
facet normal 0.0 -1.0 -2.74360638911705e-18
outer loop
vertex 45.0 72.4809133126591 -1.5
vertex 43.0 72.4809133126591 -3.0
vertex 45.0 72.4809133126591 -3.0
endloop
endfacet
facet normal 0.0 -1.0 -2.74360638911705e-18
outer loop
vertex 43.0 72.4809133126591 -3.0
vertex 45.0 72.4809133126591 -1.5
vertex 43.0 72.4809133126591 -1.5
endloop
endfacet
facet normal -1.0 0.0 2.16378476296813e-18
outer loop
vertex 45.0 72.4809133126591 -1.5
vertex 45.0 62.4809133126591 -3.0
vertex 45.0 62.4809133126591 -1.5
endloop
endfacet
facet normal -1.0 0.0 2.16378476296813e-18
outer loop
vertex 45.0 62.4809133126591 -3.0
vertex 45.0 72.4809133126591 -1.5
vertex 45.0 72.4809133126591 -3.0
endloop
endfacet
facet normal 0.0 -1.0 -2.74360638911705e-18
outer loop
vertex 49.0 62.4809133126591 -1.5
vertex 45.0 62.4809133126591 -3.0
vertex 49.0 62.4809133126591 -3.0
endloop
endfacet
facet normal 0.0 -1.0 -2.74360638911705e-18
outer loop
vertex 45.0 62.4809133126591 -3.0
vertex 49.0 62.4809133126591 -1.5
vertex 45.0 62.4809133126591 -1.5
endloop
endfacet
facet normal 1.0 0.0 -2.16378476296813e-18
outer loop
vertex 49.0 72.4809133126591 -3.0
vertex 49.0 62.4809133126591 -1.5
vertex 49.0 62.4809133126591 -3.0
endloop
endfacet
facet normal 1.0 0.0 -2.16378476296813e-18
outer loop
vertex 49.0 62.4809133126591 -1.5
vertex 49.0 72.4809133126591 -3.0
vertex 49.0 72.4809133126591 -1.5
endloop
endfacet
facet normal 0.0 -1.0 -2.74360638911705e-18
outer loop
vertex 51.0 72.4809133126591 -1.5
vertex 49.0 72.4809133126591 -3.0
vertex 51.0 72.4809133126591 -3.0
endloop
endfacet
facet normal 0.0 -1.0 -2.74360638911705e-18
outer loop
vertex 49.0 72.4809133126591 -3.0
vertex 51.0 72.4809133126591 -1.5
vertex 49.0 72.4809133126591 -1.5
endloop
endfacet
facet normal -1.0 0.0 2.16378476296813e-18
outer loop
vertex 51.0 72.4809133126591 -1.5
vertex 51.0 62.4809133126591 -3.0
vertex 51.0 62.4809133126591 -1.5
endloop
endfacet
facet normal -1.0 0.0 2.16378476296813e-18
outer loop
vertex 51.0 62.4809133126591 -3.0
vertex 51.0 72.4809133126591 -1.5
vertex 51.0 72.4809133126591 -3.0
endloop
endfacet
facet normal 0.0 -1.0 -2.74360638911705e-18
outer loop
vertex 55.0 62.4809133126591 -1.5
vertex 51.0 62.4809133126591 -3.0
vertex 55.0 62.4809133126591 -3.0
endloop
endfacet
facet normal 0.0 -1.0 -2.74360638911705e-18
outer loop
vertex 51.0 62.4809133126591 -3.0
vertex 55.0 62.4809133126591 -1.5
vertex 51.0 62.4809133126591 -1.5
endloop
endfacet
facet normal 1.0 0.0 -2.16378476296813e-18
outer loop
vertex 55.0 72.4809133126591 -3.0
vertex 55.0 62.4809133126591 -1.5
vertex 55.0 62.4809133126591 -3.0
endloop
endfacet
facet normal 1.0 0.0 -2.16378476296813e-18
outer loop
vertex 55.0 62.4809133126591 -1.5
vertex 55.0 72.4809133126591 -3.0
vertex 55.0 72.4809133126591 -1.5
endloop
endfacet
facet normal 0.0 -1.0 -2.74360638911705e-18
outer loop
vertex 57.0 72.4809133126591 -1.5
vertex 55.0 72.4809133126591 -3.0
vertex 57.0 72.4809133126591 -3.0
endloop
endfacet
facet normal 0.0 -1.0 -2.74360638911705e-18
outer loop
vertex 55.0 72.4809133126591 -3.0
vertex 57.0 72.4809133126591 -1.5
vertex 55.0 72.4809133126591 -1.5
endloop
endfacet
facet normal -1.0 0.0 2.16378476296813e-18
outer loop
vertex 57.0 72.4809133126591 -1.5
vertex 57.0 62.4809133126591 -3.0
vertex 57.0 62.4809133126591 -1.5
endloop
endfacet
facet normal -1.0 0.0 2.16378476296813e-18
outer loop
vertex 57.0 62.4809133126591 -3.0
vertex 57.0 72.4809133126591 -1.5
vertex 57.0 72.4809133126591 -3.0
endloop
endfacet
facet normal 0.0 -1.0 -2.74360638911705e-18
outer loop
vertex 61.0 62.4809133126591 -1.5
vertex 57.0 62.4809133126591 -3.0
vertex 61.0 62.4809133126591 -3.0
endloop
endfacet
facet normal 0.0 -1.0 -2.74360638911705e-18
outer loop
vertex 57.0 62.4809133126591 -3.0
vertex 61.0 62.4809133126591 -1.5
vertex 57.0 62.4809133126591 -1.5
endloop
endfacet
facet normal 1.0 0.0 -2.16378476296813e-18
outer loop
vertex 61.0 72.4809133126591 -3.0
vertex 61.0 62.4809133126591 -1.5
vertex 61.0 62.4809133126591 -3.0
endloop
endfacet
facet normal 1.0 0.0 -2.16378476296813e-18
outer loop
vertex 61.0 62.4809133126591 -1.5
vertex 61.0 72.4809133126591 -3.0
vertex 61.0 72.4809133126591 -1.5
endloop
endfacet
facet normal 0.0 -1.0 -2.74360638911705e-18
outer loop
vertex 63.0 72.4809133126591 -1.5
vertex 61.0 72.4809133126591 -3.0
vertex 63.0 72.4809133126591 -3.0
endloop
endfacet
facet normal 0.0 -1.0 -2.74360638911705e-18
outer loop
vertex 61.0 72.4809133126591 -3.0
vertex 63.0 72.4809133126591 -1.5
vertex 61.0 72.4809133126591 -1.5
endloop
endfacet
facet normal -1.0 0.0 2.16378476296813e-18
outer loop
vertex 63.0 72.4809133126591 -1.5
vertex 63.0 62.4809133126591 -3.0
vertex 63.0 62.4809133126591 -1.5
endloop
endfacet
facet normal -1.0 0.0 2.16378476296813e-18
outer loop
vertex 63.0 62.4809133126591 -3.0
vertex 63.0 72.4809133126591 -1.5
vertex 63.0 72.4809133126591 -3.0
endloop
endfacet
facet normal 0.0 -1.0 -2.74360638911705e-18
outer loop
vertex 67.0 62.4809133126591 -1.5
vertex 63.0 62.4809133126591 -3.0
vertex 67.0 62.4809133126591 -3.0
endloop
endfacet
facet normal 0.0 -1.0 -2.74360638911705e-18
outer loop
vertex 63.0 62.4809133126591 -3.0
vertex 67.0 62.4809133126591 -1.5
vertex 63.0 62.4809133126591 -1.5
endloop
endfacet
facet normal 1.0 0.0 -2.16378476296813e-18
outer loop
vertex 67.0 72.4809133126591 -3.0
vertex 67.0 62.4809133126591 -1.5
vertex 67.0 62.4809133126591 -3.0
endloop
endfacet
facet normal 1.0 0.0 -2.16378476296813e-18
outer loop
vertex 67.0 62.4809133126591 -1.5
vertex 67.0 72.4809133126591 -3.0
vertex 67.0 72.4809133126591 -1.5
endloop
endfacet
facet normal 0.0 -1.0 -2.74360638911705e-18
outer loop
vertex 69.0 72.4809133126591 -1.5
vertex 67.0 72.4809133126591 -3.0
vertex 69.0 72.4809133126591 -3.0
endloop
endfacet
facet normal 0.0 -1.0 -2.74360638911705e-18
outer loop
vertex 67.0 72.4809133126591 -3.0
vertex 69.0 72.4809133126591 -1.5
vertex 67.0 72.4809133126591 -1.5
endloop
endfacet
facet normal -1.0 0.0 2.16378476296813e-18
outer loop
vertex 69.0 72.4809133126591 -1.5
vertex 69.0 62.4809133126591 -3.0
vertex 69.0 62.4809133126591 -1.5
endloop
endfacet
facet normal -1.0 0.0 2.16378476296813e-18
outer loop
vertex 69.0 62.4809133126591 -3.0
vertex 69.0 72.4809133126591 -1.5
vertex 69.0 72.4809133126591 -3.0
endloop
endfacet
facet normal 0.0 -1.0 -2.74360638911705e-18
outer loop
vertex 73.0 62.4809133126591 -1.5
vertex 69.0 62.4809133126591 -3.0
vertex 73.0 62.4809133126591 -3.0
endloop
endfacet
facet normal 0.0 -1.0 -2.74360638911705e-18
outer loop
vertex 69.0 62.4809133126591 -3.0
vertex 73.0 62.4809133126591 -1.5
vertex 69.0 62.4809133126591 -1.5
endloop
endfacet
facet normal 1.0 0.0 -2.16378476296813e-18
outer loop
vertex 73.0 72.4809133126591 -3.0
vertex 73.0 62.4809133126591 -1.5
vertex 73.0 62.4809133126591 -3.0
endloop
endfacet
facet normal 1.0 0.0 -2.16378476296813e-18
outer loop
vertex 73.0 62.4809133126591 -1.5
vertex 73.0 72.4809133126591 -3.0
vertex 73.0 72.4809133126591 -1.5
endloop
endfacet
facet normal 0.0 -1.0 -2.74360638911705e-18
outer loop
vertex 75.0 72.4809133126591 -1.5
vertex 73.0 72.4809133126591 -3.0
vertex 75.0 72.4809133126591 -3.0
endloop
endfacet
facet normal 0.0 -1.0 -2.74360638911705e-18
outer loop
vertex 73.0 72.4809133126591 -3.0
vertex 75.0 72.4809133126591 -1.5
vertex 73.0 72.4809133126591 -1.5
endloop
endfacet
facet normal -1.0 0.0 2.16378476296813e-18
outer loop
vertex 75.0 72.4809133126591 -1.5
vertex 75.0 62.4809133126591 -3.0
vertex 75.0 62.4809133126591 -1.5
endloop
endfacet
facet normal -1.0 0.0 2.16378476296813e-18
outer loop
vertex 75.0 62.4809133126591 -3.0
vertex 75.0 72.4809133126591 -1.5
vertex 75.0 72.4809133126591 -3.0
endloop
endfacet
facet normal 0.0 -1.0 -2.74360638911705e-18
outer loop
vertex 79.0 62.4809133126591 -1.5
vertex 75.0 62.4809133126591 -3.0
vertex 79.0 62.4809133126591 -3.0
endloop
endfacet
facet normal 0.0 -1.0 -2.74360638911705e-18
outer loop
vertex 75.0 62.4809133126591 -3.0
vertex 79.0 62.4809133126591 -1.5
vertex 75.0 62.4809133126591 -1.5
endloop
endfacet
facet normal 1.0 0.0 -2.16378476296813e-18
outer loop
vertex 79.0 72.4809133126591 -3.0
vertex 79.0 62.4809133126591 -1.5
vertex 79.0 62.4809133126591 -3.0
endloop
endfacet
facet normal 1.0 0.0 -2.16378476296813e-18
outer loop
vertex 79.0 62.4809133126591 -1.5
vertex 79.0 72.4809133126591 -3.0
vertex 79.0 72.4809133126591 -1.5
endloop
endfacet
facet normal 0.0 -1.0 -2.74360638911705e-18
outer loop
vertex 81.0 72.4809133126591 -1.5
vertex 79.0 72.4809133126591 -3.0
vertex 81.0 72.4809133126591 -3.0
endloop
endfacet
facet normal 0.0 -1.0 -2.74360638911705e-18
outer loop
vertex 79.0 72.4809133126591 -3.0
vertex 81.0 72.4809133126591 -1.5
vertex 79.0 72.4809133126591 -1.5
endloop
endfacet
facet normal -1.0 0.0 2.16378476296813e-18
outer loop
vertex 81.0 72.4809133126591 -1.5
vertex 81.0 62.4809133126591 -3.0
vertex 81.0 62.4809133126591 -1.5
endloop
endfacet
facet normal -1.0 0.0 2.16378476296813e-18
outer loop
vertex 81.0 62.4809133126591 -3.0
vertex 81.0 72.4809133126591 -1.5
vertex 81.0 72.4809133126591 -3.0
endloop
endfacet
facet normal 0.0 -1.0 -2.74360638911705e-18
outer loop
vertex 85.0 62.4809133126591 -1.5
vertex 81.0 62.4809133126591 -3.0
vertex 85.0 62.4809133126591 -3.0
endloop
endfacet
facet normal 0.0 -1.0 -2.74360638911705e-18
outer loop
vertex 81.0 62.4809133126591 -3.0
vertex 85.0 62.4809133126591 -1.5
vertex 81.0 62.4809133126591 -1.5
endloop
endfacet
facet normal 1.0 0.0 -2.16378476296813e-18
outer loop
vertex 85.0 72.4809133126591 -3.0
vertex 85.0 62.4809133126591 -1.5
vertex 85.0 62.4809133126591 -3.0
endloop
endfacet
facet normal 1.0 0.0 -2.16378476296813e-18
outer loop
vertex 85.0 62.4809133126591 -1.5
vertex 85.0 72.4809133126591 -3.0
vertex 85.0 72.4809133126591 -1.5
endloop
endfacet
facet normal 0.0 -1.0 -2.74360638911705e-18
outer loop
vertex 87.0 72.4809133126591 -1.5
vertex 85.0 72.4809133126591 -3.0
vertex 87.0 72.4809133126591 -3.0
endloop
endfacet
facet normal 0.0 -1.0 -2.74360638911705e-18
outer loop
vertex 85.0 72.4809133126591 -3.0
vertex 87.0 72.4809133126591 -1.5
vertex 85.0 72.4809133126591 -1.5
endloop
endfacet
facet normal -1.0 -7.62725063377248e-35 2.16378476296813e-18
outer loop
vertex 87.0 72.4809133126591 -1.5
vertex 87.0 62.4809133126591 -3.0
vertex 87.0 62.4809133126591 -1.5
endloop
endfacet
facet normal -1.0 -7.62725063377248e-35 2.16378476296813e-18
outer loop
vertex 87.0 62.4809133126591 -3.0
vertex 87.0 72.4809133126591 -1.5
vertex 87.0 72.4809133126591 -3.0
endloop
endfacet
facet normal 0.0 -1.0 -2.74360638911705e-18
outer loop
vertex 90.9999999999999 62.4809133126591 -1.5
vertex 87.0 62.4809133126591 -3.0
vertex 90.9999999999999 62.4809133126591 -3.0
endloop
endfacet
facet normal 0.0 -1.0 -2.74360638911705e-18
outer loop
vertex 87.0 62.4809133126591 -3.0
vertex 90.9999999999999 62.4809133126591 -1.5
vertex 87.0 62.4809133126591 -1.5
endloop
endfacet
facet normal 1.0 7.62725063377248e-35 -2.16378476296813e-18
outer loop
vertex 90.9999999999999 72.4809133126591 -3.0
vertex 90.9999999999999 62.4809133126591 -1.5
vertex 90.9999999999999 62.4809133126591 -3.0
endloop
endfacet
facet normal 1.0 7.62725063377248e-35 -2.16378476296813e-18
outer loop
vertex 90.9999999999999 62.4809133126591 -1.5
vertex 90.9999999999999 72.4809133126591 -3.0
vertex 90.9999999999999 72.4809133126591 -1.5
endloop
endfacet
facet normal -9.67109757326794e-34 -1.0 -2.74360638911705e-18
outer loop
vertex 92.9999999999999 72.4809133126591 -1.5
vertex 90.9999999999999 72.4809133126591 -3.0
vertex 92.9999999999999 72.4809133126591 -3.0
endloop
endfacet
facet normal -9.67109757326794e-34 -1.0 -2.74360638911705e-18
outer loop
vertex 90.9999999999999 72.4809133126591 -3.0
vertex 92.9999999999999 72.4809133126591 -1.5
vertex 90.9999999999999 72.4809133126591 -1.5
endloop
endfacet
facet normal -1.0 0.0 2.16378476296813e-18
outer loop
vertex 92.9999999999999 72.4809133126591 -1.5
vertex 92.9999999999999 62.4809133126591 -3.0
vertex 92.9999999999999 62.4809133126591 -1.5
endloop
endfacet
facet normal -1.0 0.0 2.16378476296813e-18
outer loop
vertex 92.9999999999999 62.4809133126591 -3.0
vertex 92.9999999999999 72.4809133126591 -1.5
vertex 92.9999999999999 72.4809133126591 -3.0
endloop
endfacet
facet normal 0.0 -1.0 -2.74360638911705e-18
outer loop
vertex 96.9999999999999 62.4809133126591 -1.5
vertex 92.9999999999999 62.4809133126591 -3.0
vertex 96.9999999999999 62.4809133126591 -3.0
endloop
endfacet
facet normal 0.0 -1.0 -2.74360638911705e-18
outer loop
vertex 92.9999999999999 62.4809133126591 -3.0
vertex 96.9999999999999 62.4809133126591 -1.5
vertex 92.9999999999999 62.4809133126591 -1.5
endloop
endfacet
facet normal 1.0 7.6275921242777e-35 -2.16378476296813e-18
outer loop
vertex 96.9999999999999 72.4804656084562 -3.0
vertex 96.9999999999999 62.4809133126591 -1.5
vertex 96.9999999999999 62.4809133126591 -3.0
endloop
endfacet
facet normal 1.0 7.6275921242777e-35 -2.16378476296813e-18
outer loop
vertex 96.9999999999999 62.4809133126591 -1.5
vertex 96.9999999999999 72.4804656084562 -3.0
vertex 96.9999999999999 72.4804656084562 -1.5
endloop
endfacet
facet normal -0.000447704158059884 -0.999999899780488 -2.74263737871863e-18
outer loop
vertex 99.0929478688276 72.4795285868988 -1.5
vertex 96.9999999999999 72.4804656084562 -3.0
vertex 99.0929478688276 72.4795285868988 -3.0
endloop
endfacet
facet normal -0.000447704158059884 -0.999999899780488 -2.74263737871863e-18
outer loop
vertex 96.9999999999999 72.4804656084562 -3.0
vertex 99.0929478688276 72.4795285868988 -1.5
vertex 96.9999999999999 72.4804656084562 -1.5
endloop
endfacet
facet normal 0.999999041266825 -0.00138472576031322 -2.16758183091907e-18
outer loop
vertex 99.0998734217343 77.4809133126591 -3.0
vertex 99.0929478688276 72.4795285868988 -1.5
vertex 99.0929478688276 72.4795285868988 -3.0
endloop
endfacet
facet normal 0.999999041266825 -0.00138472576031322 -2.16758183091907e-18
outer loop
vertex 99.0929478688276 72.4795285868988 -1.5
vertex 99.0998734217343 77.4809133126591 -3.0
vertex 99.0998734217343 77.4809133126591 -1.5
endloop
endfacet
facet normal 0.0 -1.0 -2.74360638911705e-18
outer loop
vertex 103.106815273094 77.4809133126591 -1.5
vertex 99.0998734217343 77.4809133126591 -3.0
vertex 103.106815273094 77.4809133126591 -3.0
endloop
endfacet
facet normal 0.0 -1.0 -2.74360638911705e-18
outer loop
vertex 99.0998734217343 77.4809133126591 -3.0
vertex 103.106815273094 77.4809133126591 -1.5
vertex 99.0998734217343 77.4809133126591 -1.5
endloop
endfacet
facet normal 0.999998415156852 -0.00178036057712674 -2.16866594236301e-18
outer loop
vertex 103.131740360676 91.4809133126591 -3.0
vertex 103.106815273094 77.4809133126591 -1.5
vertex 103.106815273094 77.4809133126591 -3.0
endloop
endfacet
facet normal 0.999998415156852 -0.00178036057712674 -2.16866594236301e-18
outer loop
vertex 103.106815273094 77.4809133126591 -1.5
vertex 103.131740360676 91.4809133126591 -3.0
vertex 103.131740360676 91.4809133126591 -1.5
endloop
endfacet
facet normal 0.0 1.0 2.74360638911705e-18
outer loop
vertex -5.0 91.4809133126591 -1.5
vertex 103.131740360676 91.4809133126591 -3.0
vertex -5.0 91.4809133126591 -3.0
endloop
endfacet
facet normal 0.0 1.0 2.74360638911705e-18
outer loop
vertex 103.131740360676 91.4809133126591 -3.0
vertex -5.0 91.4809133126591 -1.5
vertex 103.131740360676 91.4809133126591 -1.5
endloop
endfacet
facet normal -1.0 -1.00713088662425e-16 2.16378476296813e-18
outer loop
vertex -5.0 91.4809133126591 -1.5
vertex -5.0 77.4809133126591 -3.0
vertex -5.0 77.4809133126591 -1.5
endloop
endfacet
facet normal -1.0 -1.00713088662425e-16 2.16378476296813e-18
outer loop
vertex -5.0 77.4809133126591 -3.0
vertex -5.0 91.4809133126591 -1.5
vertex -5.0 91.4809133126591 -3.0
endloop
endfacet
facet normal 0.0 -1.0 -2.74360638911705e-18
outer loop
vertex -0.999999999999996 77.4809133126591 -1.5
vertex -5.0 77.4809133126591 -3.0
vertex -0.999999999999996 77.4809133126591 -3.0
endloop
endfacet
facet normal 0.0 -1.0 -2.74360638911705e-18
outer loop
vertex -5.0 77.4809133126591 -3.0
vertex -0.999999999999996 77.4809133126591 -1.5
vertex -5.0 77.4809133126591 -1.5
endloop
endfacet
facet normal -1.0 -2.11497486191093e-16 2.16378476296813e-18
outer loop
vertex -0.999999999999996 77.4809133126591 -1.5
vertex -0.999999999999995 72.4809133126592 -3.0
vertex -0.999999999999995 72.4809133126592 -1.5
endloop
endfacet
facet normal -1.0 -2.11497486191093e-16 2.16378476296813e-18
outer loop
vertex -0.999999999999995 72.4809133126592 -3.0
vertex -0.999999999999996 77.4809133126591 -1.5
vertex -0.999999999999996 77.4809133126591 -3.0
endloop
endfacet
facet normal 0.0 -1.0 -2.74360638911705e-18
outer loop
vertex 3.0 72.4809133126592 -1.5
vertex -0.999999999999995 72.4809133126592 -3.0
vertex 3.0 72.4809133126592 -3.0
endloop
endfacet
facet normal 0.0 -1.0 -2.74360638911705e-18
outer loop
vertex -0.999999999999995 72.4809133126592 -3.0
vertex 3.0 72.4809133126592 -1.5
vertex -0.999999999999995 72.4809133126592 -1.5
endloop
endfacet
facet normal -1.0 -1.19848575508286e-15 2.16378476296813e-18
outer loop
vertex 3.0 72.4809133126592 -1.5
vertex 3.00000000000002 62.4809133126591 -3.0
vertex 3.00000000000002 62.4809133126591 -1.5
endloop
endfacet
facet normal -1.0 -1.19848575508286e-15 2.16378476296813e-18
outer loop
vertex 3.00000000000002 62.4809133126591 -3.0
vertex 3.0 72.4809133126592 -1.5
vertex 3.0 72.4809133126592 -3.0
endloop
endfacet
facet normal 0.0 -1.0 -2.74360638911705e-18
outer loop
vertex 7.00000000000001 62.4809133126591 -1.5
vertex 3.00000000000002 62.4809133126591 -3.0
vertex 7.00000000000001 62.4809133126591 -3.0
endloop
endfacet
facet normal 0.0 -1.0 -2.74360638911705e-18
outer loop
vertex 3.00000000000002 62.4809133126591 -3.0
vertex 7.00000000000001 62.4809133126591 -1.5
vertex 3.00000000000002 62.4809133126591 -1.5
endloop
endfacet
facet normal 1.0 0.0 -2.16378476296813e-18
outer loop
vertex 7.00000000000001 72.4809133126591 -3.0
vertex 7.00000000000001 62.4809133126591 -1.5
vertex 7.00000000000001 62.4809133126591 -3.0
endloop
endfacet
facet normal 1.0 0.0 -2.16378476296813e-18
outer loop
vertex 7.00000000000001 62.4809133126591 -1.5
vertex 7.00000000000001 72.4809133126591 -3.0
vertex 7.00000000000001 72.4809133126591 -1.5
endloop
endfacet
facet normal 0.0 -1.0 -2.74360638911705e-18
outer loop
vertex 9.00000000000001 72.4809133126591 -1.5
vertex 7.00000000000001 72.4809133126591 -3.0
vertex 9.00000000000001 72.4809133126591 -3.0
endloop
endfacet
facet normal 0.0 -1.0 -2.74360638911705e-18
outer loop
vertex 7.00000000000001 72.4809133126591 -3.0
vertex 9.00000000000001 72.4809133126591 -1.5
vertex 7.00000000000001 72.4809133126591 -1.5
endloop
endfacet
facet normal -1.0 -1.40998324127395e-16 2.16378476296813e-18
outer loop
vertex 9.00000000000001 72.4809133126591 -1.5
vertex 9.00000000000001 62.4809133126591 -3.0
vertex 9.00000000000001 62.4809133126591 -1.5
endloop
endfacet
facet normal -1.0 -1.40998324127395e-16 2.16378476296813e-18
outer loop
vertex 9.00000000000001 62.4809133126591 -3.0
vertex 9.00000000000001 72.4809133126591 -1.5
vertex 9.00000000000001 72.4809133126591 -3.0
endloop
endfacet
endsolid comb gel
